<?xml version="1.0" encoding="UTF-8"?>
<svg width="16px" height="16px" viewBox="0 0 16 16" version="1.1" xmlns="http://www.w3.org/2000/svg" xmlns:xlink="http://www.w3.org/1999/xlink">
    <!-- Generator: Sketch 47 (45396) - http://www.bohemiancoding.com/sketch -->
    <title>timeonsite</title>
    <desc>Created with Sketch.</desc>
    <defs></defs>
    <g id="Page-1" stroke="none" stroke-width="1" fill="none" fill-rule="evenodd">
        <g id="Daratus-1" transform="translate(-1191.000000, -692.000000)" fill-rule="nonzero" fill="#9E46F6">
            <g id="timeonsite" transform="translate(1191.000000, 692.000000)">
                <path d="M8,16 C3.581722,16 0,12.418278 0,8 C0,5.70369928 0.97340608,3.56302356 2.64595491,2.0556571 C4.10497247,0.74073338 5.99546045,0 8,0 C12.418278,0 16,3.581722 16,8 C16,12.418278 12.418278,16 8,16 Z M8,15 C11.8659932,15 15,11.8659932 15,8 C15,4.13400675 11.8659932,1 8,1 C6.24516117,1 4.59249679,1.64754904 3.31542804,2.79849338 C1.85113439,4.11817211 1,5.98995283 1,8 C1,11.8659932 4.13400675,15 8,15 Z" id="Oval-4"></path>
                <polygon id="Path-3" points="8.5 2.5 7.5 2.5 7.5 8.19016325 10.7252972 11.4154605 11.432404 10.7083537 8.5 7.77594969"></polygon>
            </g>
        </g>
    </g>
</svg>