<?xml version="1.0" encoding="UTF-8"?>
<svg width="28px" height="28px" viewBox="0 0 28 28" version="1.1" xmlns="http://www.w3.org/2000/svg" xmlns:xlink="http://www.w3.org/1999/xlink">
    <!-- Generator: Sketch 47 (45396) - http://www.bohemiancoding.com/sketch -->
    <title>reddit</title>
    <desc>Created with Sketch.</desc>
    <defs></defs>
    <g id="Page-1" stroke="none" stroke-width="1" fill="none" fill-rule="evenodd">
        <g id="Daratus-1" transform="translate(-992.000000, -509.000000)">
            <g id="reddit" transform="translate(992.000000, 509.000000)">
                <circle id="Path" fill="#ADB8CC" cx="14" cy="14" r="14"></circle>
                <path d="M17.4392857,13.7419355 C16.8174857,13.7419355 16.3142857,14.2422371 16.3142857,14.8596775 C16.3142857,15.4767161 16.8174857,15.9776205 17.4392857,15.9776205 C18.0604857,15.9776205 18.5642857,15.4767161 18.5642857,14.8596775 C18.5642857,14.2422371 18.0604857,13.7419355 17.4392857,13.7419355" id="Fill-65" fill="#FFFFFF"></path>
                <path d="M21.1686,13.7436235 C20.8082,13.1830447 20.321,12.6716923 19.7332,12.229056 C19.914,11.8507155 20.3018,11.589112 20.75,11.589112 C21.3698,11.589112 21.875,12.0904182 21.875,12.706854 C21.875,13.1756105 21.5824,13.5782628 21.1686,13.7436235 M14,20.321886 C10.3884,20.321886 7.461,18.4131049 7.461,16.060281 C7.461,13.7068544 10.3884,11.7986761 14,11.7986761 C17.6118,11.7986761 20.5392,13.7068544 20.5392,16.060281 C20.5392,18.4131049 17.6118,20.321886 14,20.321886 M6.125,12.706854 C6.125,12.0904182 6.63,11.589112 7.25,11.589112 C7.6984,11.589112 8.0866,11.8507155 8.2662,12.229056 C7.679,12.6716923 7.1918,13.1830447 6.8316,13.7436235 C6.4172,13.5782628 6.125,13.1756105 6.125,12.706854 M20.1876,7.04802129 C20.537,7.04802129 20.8204,7.3289135 20.8204,7.67671351 C20.8204,8.02391074 20.537,8.30540572 20.1876,8.30540572 C19.8382,8.30540572 19.5548,8.02391074 19.5548,7.67671351 C19.5548,7.3289135 19.8382,7.04802129 20.1876,7.04802129 M20.75,10.471169 C19.9048,10.471169 19.168,10.9351033 18.784,11.6204562 C17.6272,10.991563 16.2182,10.5858968 14.6834,10.492467 L16.026,7.49628346 L18.5956,8.23347481 C18.827,8.88567518 19.452,9.35342701 20.1876,9.35342701 C21.1198,9.35342701 21.875,8.6025728 21.875,7.67671351 C21.875,6.75025144 21.1198,6 20.1876,6 C19.5448,6 18.9862,6.35664068 18.701,6.88205779 L15.837,6.06088007 C15.5172,5.96905765 15.1778,6.12577863 15.0416,6.42816974 L13.2184,10.4982938 C11.7214,10.6029754 10.3482,11.0056277 9.2166,11.6204562 C8.8326,10.9351033 8.0954,10.471169 7.25,10.471169 C6.0074,10.471169 5,11.472174 5,12.706854 C5,13.620256 5.552,14.4054683 6.3426,14.7520627 C6.2004,15.1715927 6.125,15.6096078 6.125,16.060281 C6.125,19.1464787 9.6506,21.649393 14,21.649393 C18.349,21.649393 21.875,19.1464787 21.875,16.060281 C21.875,15.6096078 21.7998,15.1715927 21.6576,14.7524646 C22.4474,14.4054683 23,13.620256 23,12.706854 C23,11.472174 21.9926,10.471169 20.75,10.471169" id="Fill-66" fill="#FFFFFF"></path>
                <path d="M11.8785714,14.8596775 C11.8785714,14.2420361 11.3747714,13.7419355 10.7535714,13.7419355 C10.1317714,13.7419355 9.62857143,14.2420361 9.62857143,14.8596775 C9.62857143,15.4767161 10.1317714,15.9774195 10.7535714,15.9774195 C11.3747714,15.9774195 11.8785714,15.4767161 11.8785714,14.8596775" id="Fill-67" fill="#FFFFFF"></path>
                <path d="M16.3476846,17.4971013 C15.8834846,17.8605734 14.9644846,18.2521749 14.0432846,18.2521749 C13.1220846,18.2521749 12.2030846,17.8605734 11.7388846,17.4971013 C11.4488846,17.2704587 11.0286846,17.319886 10.8006846,17.6078106 C10.5720846,17.8955342 10.6220846,18.313055 10.9110846,18.5394967 C11.7184846,19.1710019 12.9474846,19.5796819 14.0432846,19.5796819 C15.1386846,19.5796819 16.3678846,19.1710019 17.1748846,18.5394967 C17.4642846,18.313055 17.5144846,17.8955342 17.2864846,17.6078106 C17.0572846,17.319886 16.6376846,17.2704587 16.3476846,17.4971013" id="Fill-68" fill="#FFFFFF"></path>
            </g>
        </g>
    </g>
</svg>