<?xml version="1.0" encoding="UTF-8"?>
<svg width="28px" height="28px" viewBox="0 0 28 28" version="1.1" xmlns="http://www.w3.org/2000/svg" xmlns:xlink="http://www.w3.org/1999/xlink">
    <!-- Generator: Sketch 47 (45396) - http://www.bohemiancoding.com/sketch -->
    <title>twitter</title>
    <desc>Created with Sketch.</desc>
    <defs></defs>
    <g id="Page-1" stroke="none" stroke-width="1" fill="none" fill-rule="evenodd">
        <g id="Daratus-1" transform="translate(-907.000000, -509.000000)">
            <g id="twitter" transform="translate(907.000000, 509.000000)">
                <circle id="Path" fill="#ADB8CC" cx="14" cy="14" r="14"></circle>
                <path d="M22.5445333,7.89297231 C22.0796444,8.19533128 21.0122667,8.63469949 20.4858667,8.63469949 L20.4858667,8.63560205 C19.8848,7.99803077 19.0385778,7.6 18.1000889,7.6 C16.2773333,7.6 14.7992889,9.10078359 14.7992889,10.9508595 C14.7992889,11.2079097 14.8286222,11.4586421 14.8828444,11.6990851 L14.8823111,11.6990851 C12.4097778,11.6331979 9.7056,10.3748431 8.07768889,8.22114462 C7.0768,9.98024205 7.94293333,11.93664 9.07875556,12.6494851 C8.68995556,12.6792697 7.97422222,12.6039959 7.63733333,12.2702277 C7.61475556,13.4377846 8.16764444,14.9847795 10.1836444,15.5459938 C9.79537778,15.7580964 9.10808889,15.6972636 8.80924444,15.6521354 C8.91413333,16.6377354 10.2734222,17.9262359 11.7598222,17.9262359 C11.2300444,18.5484636 9.2368,19.6770297 7,19.3179897 C8.51911111,20.2564759 10.2896,20.8 12.1635556,20.8 C17.4888889,20.8 21.6245333,16.4176903 21.4019556,11.0115118 C21.4010667,11.0055549 21.4010667,10.9995979 21.4005333,10.9930995 C21.4010667,10.9792 21.4019556,10.9653005 21.4019556,10.9508595 C21.4019556,10.9340718 21.4005333,10.9181867 21.4,10.9019405 C21.8848,10.5652841 22.5352889,9.96977231 23,9.18598564 C22.7304889,9.33671385 21.9219556,9.63853128 21.1696,9.7134441 C21.6524444,9.44881231 22.3678222,8.58217026 22.5445333,7.89297231" id="Fill-1" fill="#FFFFFF"></path>
            </g>
        </g>
    </g>
</svg>