<?xml version="1.0" encoding="UTF-8"?>
<svg width="28px" height="28px" viewBox="0 0 28 28" version="1.1" xmlns="http://www.w3.org/2000/svg" xmlns:xlink="http://www.w3.org/1999/xlink">
    <!-- Generator: Sketch 47 (45396) - http://www.bohemiancoding.com/sketch -->
    <title>Bitcoin</title>
    <desc>Created with Sketch.</desc>
    <defs></defs>
    <g id="Page-1" stroke="none" stroke-width="1" fill="none" fill-rule="evenodd">
        <g id="Daratus-1" transform="translate(-1123.000000, -509.000000)">
            <g id="Bitcoin" transform="translate(1123.000000, 509.000000)">
                <path d="M0,14 C0,6.26801312 6.26801312,0 14,0 C21.7319869,0 28,6.26801312 28,14 C28,21.7319869 21.7319869,28 14,28 C6.26801312,28 0,21.7319869 0,14 Z" id="Path" fill="#ADB8CC"></path>
                <path d="M20.1531077,12.0176615 C20.4275077,10.1834462 19.0309538,9.19741538 17.1213538,8.53963077 L17.7408,6.05495385 L16.2283692,5.67803077 L15.6252923,8.09723077 C15.2276923,7.99815385 14.8193231,7.90467692 14.4135385,7.81206154 L15.0209231,5.37692308 L13.5093538,5 L12.8894769,7.48381538 C12.5603692,7.40886154 12.2372923,7.33476923 11.9236923,7.2568 L11.9254154,7.24904615 L9.83963077,6.72824615 L9.43729231,8.34363077 C9.43729231,8.34363077 10.5594462,8.6008 10.5357538,8.61673846 C11.1483077,8.76966154 11.2590154,9.17501538 11.2404923,9.49636923 L10.5348923,12.3269538 C10.5771077,12.3377231 10.6318154,12.3532308 10.6921231,12.3773538 C10.6417231,12.3648615 10.5878769,12.3510769 10.5323077,12.3377231 L9.54326154,16.3029538 C9.46830769,16.4890462 9.27833846,16.7681846 8.85015385,16.6622154 C8.86523077,16.6841846 7.75083077,16.3878154 7.75083077,16.3878154 L7,18.1190769 L8.96818462,18.6097231 C9.33433846,18.7014769 9.69316923,18.7975385 10.0464,18.888 L9.42049231,21.4011077 L10.9312,21.7780308 L11.5510769,19.2916308 C11.9637538,19.4036308 12.3643692,19.5070154 12.7563692,19.6043692 L12.1386462,22.0791385 L13.6510769,22.4560615 L14.2769846,19.9476923 C16.856,20.4357538 18.7953231,20.2388923 19.6116308,17.9062769 C20.2694154,16.0281231 19.5788923,14.9447385 18.2219692,14.2382769 C19.2101538,14.0104 19.9545231,13.3603692 20.1531077,12.0176615 L20.1531077,12.0176615 Z M16.6974769,16.8633846 C16.2300923,18.7415385 13.0678154,17.7262154 12.0425846,17.4716308 L12.8731077,14.1422154 C13.8983385,14.3980923 17.1859692,14.9046769 16.6974769,16.8633846 Z M17.1652923,11.9905231 C16.7388308,13.6989538 14.1068308,12.8309538 13.2530462,12.6181538 L14.0060308,9.59846154 C14.8598154,9.81126154 17.6094154,10.2084308 17.1652923,11.9905231 Z" id="Shape" fill="#FFFFFF" fill-rule="nonzero"></path>
            </g>
        </g>
    </g>
</svg>