<?xml version="1.0" encoding="UTF-8"?>
<svg width="28px" height="28px" viewBox="0 0 28 28" version="1.1" xmlns="http://www.w3.org/2000/svg" xmlns:xlink="http://www.w3.org/1999/xlink">
    <!-- Generator: Sketch 47 (45396) - http://www.bohemiancoding.com/sketch -->
    <title>github</title>
    <desc>Created with Sketch.</desc>
    <defs></defs>
    <g id="Page-1" stroke="none" stroke-width="1" fill="none" fill-rule="evenodd">
        <g id="Daratus-1" transform="translate(-1034.000000, -509.000000)" fill="#ADB8CC">
            <path d="M1048.00012,509 C1040.26908,509 1034,515.319444 1034,523.1152 C1034,529.351666 1038.01146,534.642645 1043.57413,536.509073 C1044.27381,536.639735 1044.53069,536.202872 1044.53069,535.830053 C1044.53069,535.493465 1044.51771,534.381555 1044.51168,533.202094 C1040.61683,534.055953 1039.79497,531.536684 1039.79497,531.536684 C1039.15812,529.905166 1038.24051,529.471341 1038.24051,529.471341 C1036.97028,528.595277 1038.33626,528.613275 1038.33626,528.613275 C1039.74212,528.712849 1040.48237,530.06785 1040.48237,530.06785 C1041.73104,532.225755 1043.75752,531.601898 1044.55642,531.241234 C1044.68208,530.32894 1045.0449,529.706252 1045.44528,529.353769 C1042.33567,528.996845 1039.06678,527.78653 1039.06678,522.377979 C1039.06678,520.836919 1039.61368,519.577752 1040.50926,518.589258 C1040.3639,518.233736 1039.88469,516.798094 1040.64489,514.85383 C1040.64489,514.85383 1041.82053,514.474467 1044.49591,516.300692 C1045.61267,515.987945 1046.81033,515.831104 1048.00012,515.825728 C1049.1899,515.831104 1050.38849,515.987945 1051.50733,516.300692 C1054.17947,514.474467 1055.35349,514.85383 1055.35349,514.85383 C1056.11554,516.798094 1055.6361,518.233736 1055.49074,518.589258 C1056.38841,519.577752 1056.9316,520.836919 1056.9316,522.377979 C1056.9316,527.799386 1053.65645,528.993106 1050.53895,529.34255 C1051.04111,529.780582 1051.48855,530.639583 1051.48855,531.956484 C1051.48855,533.845118 1051.47232,535.365141 1051.47232,535.830053 C1051.47232,536.205677 1051.72433,536.645812 1052.43398,536.507203 C1057.99364,534.638671 1062,529.349562 1062,523.1152 C1062,515.319444 1055.73185,509 1048.00012,509" id="github"></path>
        </g>
    </g>
</svg>