<?xml version="1.0" encoding="UTF-8"?>
<svg width="28px" height="28px" viewBox="0 0 28 28" version="1.1" xmlns="http://www.w3.org/2000/svg" xmlns:xlink="http://www.w3.org/1999/xlink">
    <!-- Generator: Sketch 47 (45396) - http://www.bohemiancoding.com/sketch -->
    <title>medium</title>
    <desc>Created with Sketch.</desc>
    <defs></defs>
    <g id="Page-1" stroke="none" stroke-width="1" fill="none" fill-rule="evenodd">
        <g id="Daratus-1" transform="translate(-1077.000000, -509.000000)">
            <g id="medium" transform="translate(1077.000000, 509.000000)">
                <path d="M0,14 C0,6.26801312 6.26801312,0 14,0 C21.7319869,0 28,6.26801312 28,14 C28,21.7319869 21.7319869,28 14,28 C6.26801312,28 0,21.7319869 0,14 Z" id="Path" fill="#ADB8CC"></path>
                <g id="Group-22" transform="translate(6.000000, 7.000000)" stroke="#ADB8CC" fill="#FFFFFF">
                    <path d="M10.8143363,0.082460095 C10.7330987,0.0415485097 10.6666667,0.0829035811 10.6666667,0.174372573 L10.6666667,11.4231737 L15.5569912,13.8859625 C15.8006488,14.0086972 16,13.8845766 16,13.6101696 L16,2.78201494 C16,2.72807595 15.9697286,2.67873813 15.9218446,2.65462358 L10.8143363,0.082460095" id="Fill-6"></path>
                    <path d="M5.33333333,8.61833475 L10.6052956,0.150953335 C10.6531325,0.0741560276 10.7590374,0.0443116647 10.8406643,0.0846507486 L15.9331689,2.60130671 C15.9966013,2.63262689 16.0192201,2.71100934 15.9820566,2.77069807 L10.6922316,11.2666667 L5.33333333,8.61833475" id="Fill-7"></path>
                    <path d="M0.346193956,0.139647289 C0.0134155082,-0.0240816271 -0.0993334153,0.0970921965 0.0956658479,0.408959441 L5.20392495,8.57848309 L10.6666667,11.2666667 L5.23921536,2.58659287 C5.21615821,2.54964151 5.18301002,2.5198474 5.14366065,2.50042851 L0.346193956,0.139647289" id="Fill-9"></path>
                    <path d="M5.33333333,13.6087992 C5.33333333,13.8843698 5.13392912,14.0090168 4.89027402,13.8857616 L0.29539122,11.5618939 C0.132917793,11.4797237 0,11.2622178 0,11.078504 L0,0.283038171 C0,0.099324412 0.132917793,0.0162078538 0.29539122,0.0983780078 L5.26756242,2.61308534 C5.30785054,2.63346087 5.33333333,2.67510265 5.33333333,2.72069707 L5.33333333,13.6087992" id="Fill-10"></path>
                </g>
            </g>
        </g>
    </g>
</svg>